<svg width="1500" height="550" viewBox="0 0 1500 550" fill="none" xmlns="http://www.w3.org/2000/svg">
<rect x="1108" y="222" width="288" height="86" rx="43" fill="#D9D9D9"/>
<path fill-rule="evenodd" clip-rule="evenodd" d="M322.227 85.1604C311.862 83.0511 301.497 83.061 291.154 84.3887C278.198 86.0377 266.494 91.2207 255.925 98.8232C244.811 106.832 236.491 117.294 230.002 129.287C222.667 142.842 216.649 157.019 210.064 170.939C203.361 185.094 197.366 199.561 190.888 213.813C182.793 231.63 175.061 249.619 167.095 267.512C159.824 283.863 152.425 300.149 145.123 316.489C136.493 335.827 127.991 355.218 119.275 374.513C113.3 387.737 106.339 400.469 99.0474 413.018C94.0362 421.638 89.3465 430.44 84.5387 439.178C82.954 442.058 81.0262 444.746 79.645 447.754C77.9319 451.459 77.3432 455.132 78.9172 459.051C79.8401 461.352 81.5242 462.746 83.8031 463.695C85.5011 464.402 87.3848 463.498 88.2387 461.869L117.083 406.842C118.102 404.707 119.275 403.094 121.833 404.404L126.185 406.423C128.319 407.443 128.81 408.455 127.791 410.589L104.272 460.422C103.018 463.077 104.958 466.132 107.895 466.125C109.147 466.122 110.399 466.119 111.651 466.117L111.639 466.139C112.837 466.139 114.44 466.142 115.949 466.147C117.531 466.151 118.968 465.226 119.616 463.783L137.487 423.996C138.446 421.834 140.105 420.226 143.138 421.816L147.6 423.974C149.762 424.933 150.277 426.651 148.784 429.48L134.936 460.251C133.723 462.946 135.779 465.987 138.637 465.235C141.231 464.554 143.683 463.407 145.904 461.578C149.641 458.505 151.323 454.136 153.186 449.917C158.111 438.77 162.972 427.602 167.759 416.392C171.003 408.789 174.012 401.08 177.224 393.456C179.365 388.38 180.726 387.77 185.833 389.622C204.175 396.282 223.192 398.713 242.53 397.535C269.085 395.929 293.531 387.845 315.428 372.319C325.215 365.38 334.339 357.746 342.53 349.051C354.897 335.913 364.683 321.05 371.879 304.443C377.436 291.605 380.831 278.188 383.23 264.504C385.136 253.635 385.96 242.628 386.26 231.577C386.635 217.497 385.799 203.448 385.081 189.399C384.899 185.855 384.203 182.343 383.743 178.81C383.079 173.713 383.658 172.942 388.573 171.325C397.192 168.498 405.79 165.618 414.346 162.609C416.434 161.881 419.218 161.356 419.282 158.422C419.336 155.735 417.055 154.514 414.967 153.465C403.51 147.725 392.041 141.996 380.531 136.353C378.079 135.154 376.344 133.58 375.316 130.989C371.451 121.224 366.301 112.219 358.859 104.691C348.676 94.3907 336.436 88.0515 322.227 85.1604ZM326.565 123.9C335.355 123.933 343.396 131.867 343.375 140.594C343.353 149.931 335.644 157.994 326.982 157.994C316.146 157.994 309.047 148.4 309.711 141.033C309.079 131.674 318.191 123.879 326.565 123.9Z" fill="url(#paint0_linear_274_236)"/>
<circle cx="6.42461" cy="6.42461" r="6.42461" transform="matrix(-1 0 0 1 335.768 134.865)" fill="#643E20"/>
<path d="M509.43 305.86C504.95 305.86 500.12 305.16 494.94 303.76C489.9 302.36 485.28 300.54 481.08 298.3L483.6 278.35C490.88 282.27 497.18 284.23 502.5 284.23C503.76 284.23 504.67 284.02 505.23 283.6C505.79 283.04 506.21 281.99 506.49 280.45L511.74 236.35C503.06 239.01 494.66 241.53 486.54 243.91L489.27 221.86C497.25 220.04 505.65 217.73 514.47 214.93L518.88 179.02H494.52L496.83 159.28H521.19L525.18 127.36H545.13L541.35 159.28H560.04L557.73 179.02H538.83L535.47 208L544.71 204.64C546.81 203.94 549.96 202.75 554.16 201.07L551.85 222.91L542.4 226.06L532.74 229.42L525.6 289.9C524.9 295.08 523.15 299 520.35 301.66C517.55 304.46 513.91 305.86 509.43 305.86ZM566.76 152.56L568.86 133.45H649.92C655.94 133.45 660.14 134.64 662.52 137.02C665.04 139.4 666.3 143.39 666.3 148.99C666.3 153.33 665.67 160.05 664.41 169.15L663.36 177.13C662.38 185.67 661.05 193.51 659.37 200.65C658.25 204.99 656.29 208.42 653.49 210.94C650.83 213.46 647.47 214.72 643.41 214.72C640.75 214.72 637.53 214.44 633.75 213.88C630.11 213.32 626.61 212.69 623.25 211.99C615.55 210.45 610.23 208.98 607.29 207.58L610.02 189.1C612.54 190.5 617.09 191.83 623.67 193.09C630.67 194.49 634.59 195.19 635.43 195.19C637.25 195.19 638.51 194.91 639.21 194.35C639.91 193.65 640.47 192.39 640.89 190.57C641.45 188.05 642.43 181.89 643.83 172.09L645.09 161.17C645.23 158.93 645.37 157.18 645.51 155.92C645.65 154.52 645.79 153.4 645.93 152.56H613.8C610.86 163.76 605.05 176.64 596.37 191.2C588.95 203.38 581.25 213.32 573.27 221.02L556.05 210.31C565.29 201.91 573.06 192.81 579.36 183.01C585.8 173.21 590.56 163.06 593.64 152.56H566.76ZM648.87 306.28H549.54L557.31 244.96C558.01 238.52 559.9 233.76 562.98 230.68C566.2 227.46 570.89 225.85 577.05 225.85H640.68C652.44 225.85 657.69 232.15 656.43 244.75L648.87 306.28ZM572.01 287.8H630.39L636.27 244.33H577.26L572.01 287.8Z" fill="#101828"/>
<path d="M868.95 127.36L864.75 163.06H881.76L879.45 181.96H862.65L850.05 290.53C849.35 295.85 847.67 299.84 845.01 302.5C842.49 305.3 839.06 306.7 834.72 306.7C833.88 306.7 832.48 306.56 830.52 306.28C820.72 304.74 810.22 301.73 799.02 297.25L801.54 277.72C805.6 279.12 809.94 280.52 814.56 281.92C818.34 283.04 822.75 284.16 827.79 285.28H828.84C830.66 285.28 831.78 284.16 832.2 281.92L840.18 210.73C824.78 234.39 808.47 253.71 791.25 268.69L773.82 258.61C786.7 247.97 798.32 236.42 808.68 223.96C818.34 212.34 827.79 198.34 837.03 181.96H791.46L793.77 163.06H845.43L849.63 127.36H868.95ZM772.98 134.5C778.16 134.5 781.94 135.76 784.32 138.28C786.7 140.66 787.89 144.37 787.89 149.41C787.89 151.51 787.82 153.12 787.68 154.24L776.97 246.22H758.28L769.41 152.14H728.25L717.54 246.22H699.06L709.98 151.93C710.68 145.49 712.36 141.01 715.02 138.49C717.82 135.83 722.3 134.5 728.46 134.5H772.98ZM763.53 303.76C754.99 287.24 747.01 272.75 739.59 260.29C732.17 278.77 721.46 294.24 707.46 306.7L689.19 298.09C695.77 291.79 701.37 285.84 705.99 280.24C710.61 274.5 714.6 268.55 717.96 262.39C725.1 249.09 729.72 233.41 731.82 215.35L737.7 166.21H756.6L750.51 216.82C749.67 224.52 748.27 232.29 746.31 240.13C759.61 257.91 771.65 276.39 782.43 295.57L763.53 303.76Z" fill="#101828"/>
<path d="M946.02 230.26C940 230.26 935.73 229.42 933.21 227.74C930.69 226.06 929.43 223.33 929.43 219.55C929.43 217.87 929.64 216.12 930.06 214.3L937.41 156.55C938.25 151.23 940 147.45 942.66 145.21C945.46 142.97 949.73 141.85 955.47 141.85H978.78L987.6 124.84H1010.07L1001.04 141.85H1052.91C1057.81 141.85 1061.38 142.97 1063.62 145.21C1065.86 147.31 1066.98 150.53 1066.98 154.87C1066.98 156.83 1066.91 158.3 1066.77 159.28C1065.93 168.38 1064.39 178.81 1062.15 190.57C1060.47 199.95 1055.01 204.64 1045.77 204.64C1042.97 204.64 1039.33 204.22 1034.85 203.38L1030.44 202.54C1025.82 201.84 1020.64 200.86 1014.9 199.6L1016.79 182.59C1024.21 184.27 1031.63 185.6 1039.05 186.58C1039.47 186.72 1039.96 186.79 1040.52 186.79C1041.5 186.79 1042.2 186.51 1042.62 185.95C1043.18 185.25 1043.6 184.27 1043.88 183.01C1045.14 177.27 1046.33 169.29 1047.45 159.07H957.36L950.43 212.62H1058.79C1064.81 212.62 1069.22 213.74 1072.02 215.98C1074.82 218.08 1076.22 221.58 1076.22 226.48C1076.22 228.16 1076.15 229.49 1076.01 230.47C1073.21 255.95 1070.13 276.11 1066.77 290.95C1065.65 296.97 1063.69 301.17 1060.89 303.55C1058.09 305.93 1053.82 306.91 1048.08 306.49C1037.44 305.65 1028.76 304.67 1022.04 303.55C1009.72 301.59 1001.25 300.12 996.63 299.14L998.73 279.82C1013.15 282.76 1027.92 285.07 1043.04 286.75H1044.72C1045.98 286.75 1046.75 286.54 1047.03 286.12C1047.45 285.7 1047.8 284.58 1048.08 282.76C1051.02 267.22 1053.54 249.72 1055.64 230.26H946.02ZM994.32 167.68L1008.81 197.92H989.28L975.21 167.68H994.32ZM1039.26 248.11L1037.16 265.96H907.17L909.48 248.11H1039.26Z" fill="#101828"/>
<path d="M1183.14 231.96L1182.46 237.964H1208.15L1207.46 244.12H1187.48C1190.52 246.805 1194.32 249.491 1198.88 252.176C1202.32 254.253 1206.2 256.179 1210.5 257.952L1204.88 262.588C1201.03 260.815 1197.13 258.585 1193.18 255.9C1188.67 252.961 1184.77 249.769 1181.47 246.324L1180.33 256.28H1172.88L1173.87 247.16C1170.38 250.555 1166.27 253.595 1161.56 256.28C1158.42 258.003 1154.06 260.004 1148.49 262.284L1143.17 257.8C1149.25 255.317 1154.21 253.113 1158.06 251.188C1161.97 249.212 1165.54 246.856 1168.78 244.12H1149.4L1150.16 237.964H1174.94L1175.62 231.96H1183.14ZM1197.13 285.084H1151.91L1154.57 264.184C1154.82 262.36 1155.56 260.967 1156.77 260.004C1158.04 258.991 1159.71 258.484 1161.79 258.484H1192.57C1197.23 258.484 1199.56 260.384 1199.56 264.184C1199.56 264.792 1199.53 265.273 1199.48 265.628L1197.13 285.084ZM1192.19 264.412H1161.71L1161.18 268.972H1191.66L1192.19 264.412ZM1160.04 279.156H1190.44L1190.97 274.52H1160.57L1160.04 279.156ZM1143.55 289.872H1206.4L1205.56 296.256H1142.79L1143.55 289.872Z" fill="#101828"/>
<path d="M1244.25 232.188C1241.97 237.001 1239.94 241.08 1238.17 244.424L1232.09 297.168H1224.79L1229.2 260.46L1226.24 265.096H1217.8C1224.64 255.267 1230.59 244.297 1235.66 232.188H1244.25ZM1243.79 257.724L1244.48 252.1H1273.58L1273.96 248.68H1246.76L1247.44 243.436H1274.57L1275.03 239.94H1246.07L1246.76 234.164H1275.94C1280.55 234.164 1282.63 236.317 1282.17 240.624L1280.04 257.724H1243.79ZM1279.66 297.624C1273.13 296.155 1266.87 293.52 1260.89 289.72C1257.75 291.443 1254.43 292.963 1250.94 294.28C1247.49 295.597 1244.12 296.636 1240.83 297.396L1236.19 292.608C1242.63 291.139 1249.09 288.859 1255.57 285.768C1251.92 282.779 1248.88 279.435 1246.45 275.736H1244.32L1244.63 272.772H1239.23L1239.84 267.072C1240.09 264.893 1240.7 263.348 1241.66 262.436C1242.63 261.524 1244.17 261.068 1246.3 261.068H1277.31C1279.74 261.068 1281.49 261.448 1282.55 262.208C1283.62 262.968 1284.15 264.209 1284.15 265.932C1284.15 266.54 1284.12 266.996 1284.07 267.3L1283.39 272.772H1278.22C1278.37 273.127 1278.45 273.532 1278.45 273.988C1278.45 275.153 1277.92 276.369 1276.85 277.636C1275.84 278.903 1274.39 280.347 1272.52 281.968C1270.59 283.539 1268.69 284.957 1266.82 286.224C1272.44 289.264 1278.27 291.367 1284.3 292.532L1279.66 297.624ZM1246.68 266.996L1246.3 270.036H1273.2C1274.57 270.036 1275.69 270.315 1276.55 270.872L1277 266.996H1246.68ZM1253.9 275.736C1255.83 278.168 1258.28 280.499 1261.27 282.728C1264.26 280.904 1266.74 279.08 1268.72 277.256C1269.18 276.8 1269.4 276.471 1269.4 276.268C1269.4 275.913 1268.92 275.736 1267.96 275.736H1253.9Z" fill="#101828"/>
<path d="M1308.01 265.4C1305.43 270.264 1302.26 275.255 1298.51 280.372L1292.66 277.104C1295.7 273.304 1298.59 269.175 1301.32 264.716C1304.11 260.207 1306.57 255.647 1308.7 251.036H1298.97L1299.8 244.12H1310.52L1311.96 232.188H1319.18L1317.74 244.12H1325.11L1324.35 251.036H1316.98L1316.83 252.48C1320.02 257.597 1323.16 263.247 1326.25 269.428L1320.48 273.152C1318.8 269.403 1317.18 265.907 1315.61 262.664L1311.51 297.32H1304.29L1308.01 265.4ZM1354.07 298.308C1348.9 293.241 1344.47 287.592 1340.77 281.36C1335.95 287.085 1330.2 292.608 1323.52 297.928L1316.3 293.824C1324.15 288.301 1331.04 281.841 1336.97 274.444C1332.51 265.223 1329.32 254.937 1327.39 243.588H1325.19L1325.95 236.292H1355.44C1357.67 236.292 1359.11 237.103 1359.77 238.724C1360.02 239.383 1360.15 240.092 1360.15 240.852C1360.15 241.916 1359.95 243.183 1359.54 244.652C1356.7 255.849 1352.04 266.008 1345.56 275.128C1349.56 281.867 1354.85 288.301 1361.44 294.432L1354.07 298.308ZM1334.31 243.588C1335.83 252.556 1338.31 260.663 1341.76 267.908C1346.87 260.004 1350.14 252.455 1351.56 245.26C1351.61 245.057 1351.64 244.804 1351.64 244.5C1351.64 244.145 1351.53 243.917 1351.33 243.816C1351.18 243.664 1350.9 243.588 1350.5 243.588H1334.31Z" fill="#101828"/>
<path d="M485.17 401.9H504.8L503.175 411H470.935L472.43 402.55L496.87 374.47H477.37L478.995 365.37H511.235L509.74 373.82L485.17 401.9Z" fill="#101828"/>
<path d="M545.166 374.34C548.719 374.34 551.514 375.358 553.551 377.395C555.631 379.432 556.671 382.27 556.671 385.91C556.671 387.123 556.541 388.423 556.281 389.81L552.511 411H541.461L544.971 391.305C545.101 390.568 545.166 389.918 545.166 389.355C545.166 387.535 544.646 386.127 543.606 385.13C542.609 384.133 541.201 383.635 539.381 383.635C537.214 383.635 535.394 384.307 533.921 385.65C532.447 386.993 531.494 388.878 531.061 391.305V391.175L527.551 411H516.436L524.951 362.9H536.066L533.141 379.54C534.571 377.937 536.326 376.68 538.406 375.77C540.486 374.817 542.739 374.34 545.166 374.34Z" fill="#101828"/>
<path d="M567.275 392.8C567.925 389.073 569.203 385.802 571.11 382.985C573.016 380.168 575.313 378.002 578 376.485C580.686 374.968 583.525 374.21 586.515 374.21C589.071 374.21 591.216 374.73 592.95 375.77C594.683 376.81 595.94 378.175 596.72 379.865L597.63 374.73H608.745L602.31 411H591.195L592.17 405.865C590.783 407.555 589.028 408.92 586.905 409.96C584.781 411 582.441 411.52 579.885 411.52C577.328 411.52 575.053 410.935 573.06 409.765C571.11 408.595 569.593 406.948 568.51 404.825C567.426 402.658 566.885 400.123 566.885 397.22C566.885 395.833 567.015 394.36 567.275 392.8ZM594.445 392.865C594.575 392.085 594.64 391.37 594.64 390.72C594.64 388.597 594.011 386.928 592.755 385.715C591.541 384.502 589.981 383.895 588.075 383.895C585.865 383.895 583.85 384.697 582.03 386.3C580.21 387.86 579.061 390.027 578.585 392.8C578.455 393.58 578.39 394.295 578.39 394.945C578.39 397.068 578.996 398.758 580.21 400.015C581.466 401.228 583.026 401.835 584.89 401.835C587.1 401.835 589.115 401.033 590.935 399.43C592.755 397.827 593.925 395.638 594.445 392.865Z" fill="#101828"/>
<path d="M632.926 411.52C629.806 411.52 627.032 410.892 624.606 409.635C622.179 408.378 620.294 406.602 618.951 404.305C617.651 402.008 617.001 399.343 617.001 396.31C617.001 392.193 617.976 388.445 619.926 385.065C621.876 381.685 624.562 379.042 627.986 377.135C631.409 375.185 635.222 374.21 639.426 374.21C642.546 374.21 645.319 374.86 647.746 376.16C650.216 377.417 652.122 379.193 653.466 381.49C654.809 383.787 655.481 386.452 655.481 389.485C655.481 393.645 654.484 397.415 652.491 400.795C650.541 404.132 647.832 406.753 644.366 408.66C640.942 410.567 637.129 411.52 632.926 411.52ZM634.486 401.965C636.306 401.965 637.931 401.423 639.361 400.34C640.834 399.213 641.961 397.783 642.741 396.05C643.564 394.273 643.976 392.432 643.976 390.525C643.976 388.358 643.391 386.69 642.221 385.52C641.051 384.35 639.577 383.765 637.801 383.765C635.937 383.765 634.291 384.328 632.861 385.455C631.474 386.538 630.391 387.968 629.611 389.745C628.831 391.522 628.441 393.385 628.441 395.335C628.441 397.458 629.004 399.105 630.131 400.275C631.257 401.402 632.709 401.965 634.486 401.965Z" fill="#101828"/>
<path d="M665.948 388.12C666.728 383.613 668.396 379.605 670.953 376.095C673.553 372.542 676.759 369.79 680.573 367.84C684.386 365.847 688.503 364.85 692.923 364.85C698.339 364.85 702.716 366.28 706.053 369.14C709.433 372 711.339 375.9 711.773 380.84H699.553C698.989 378.977 697.949 377.568 696.433 376.615C694.959 375.618 693.139 375.12 690.973 375.12C687.549 375.12 684.581 376.312 682.068 378.695C679.554 381.035 677.951 384.177 677.258 388.12C677.041 389.333 676.933 390.395 676.933 391.305C676.933 394.338 677.778 396.743 679.468 398.52C681.158 400.297 683.476 401.185 686.423 401.185C688.546 401.185 690.518 400.687 692.338 399.69C694.201 398.693 695.761 397.263 697.018 395.4H709.238C707.071 400.34 703.799 404.24 699.423 407.1C695.046 409.917 690.149 411.325 684.733 411.325C680.833 411.325 677.431 410.567 674.528 409.05C671.624 407.533 669.393 405.388 667.833 402.615C666.273 399.842 665.493 396.613 665.493 392.93C665.493 391.283 665.644 389.68 665.948 388.12Z" fill="#101828"/>
<path d="M720.289 392.8C720.939 389.073 722.218 385.802 724.124 382.985C726.031 380.168 728.328 378.002 731.014 376.485C733.701 374.968 736.539 374.21 739.529 374.21C742.086 374.21 744.231 374.73 745.964 375.77C747.698 376.81 748.954 378.175 749.734 379.865L750.644 374.73H761.759L755.324 411H744.209L745.184 405.865C743.798 407.555 742.043 408.92 739.919 409.96C737.796 411 735.456 411.52 732.899 411.52C730.343 411.52 728.068 410.935 726.074 409.765C724.124 408.595 722.608 406.948 721.524 404.825C720.441 402.658 719.899 400.123 719.899 397.22C719.899 395.833 720.029 394.36 720.289 392.8ZM747.459 392.865C747.589 392.085 747.654 391.37 747.654 390.72C747.654 388.597 747.026 386.928 745.769 385.715C744.556 384.502 742.996 383.895 741.089 383.895C738.879 383.895 736.864 384.697 735.044 386.3C733.224 387.86 732.076 390.027 731.599 392.8C731.469 393.58 731.404 394.295 731.404 394.945C731.404 397.068 732.011 398.758 733.224 400.015C734.481 401.228 736.041 401.835 737.904 401.835C740.114 401.835 742.129 401.033 743.949 399.43C745.769 397.827 746.939 395.638 747.459 392.865Z" fill="#101828"/>
<path d="M782.04 370.96C780.307 370.96 778.92 370.505 777.88 369.595C776.884 368.642 776.385 367.45 776.385 366.02C776.385 364.07 777.144 362.402 778.66 361.015C780.177 359.628 782.019 358.935 784.185 358.935C785.919 358.935 787.284 359.412 788.28 360.365C789.277 361.275 789.775 362.467 789.775 363.94C789.775 365.847 789.017 367.493 787.5 368.88C785.984 370.267 784.164 370.96 782.04 370.96ZM786.85 374.73L780.48 411H769.365L775.735 374.73H786.85Z" fill="#101828"/>
<path d="M832.43 411H825.02L808.705 377.265L802.725 411H795.315L803.31 365.76H810.72L827.1 399.43L833.015 365.76H840.425L832.43 411Z" fill="#979797"/>
<path d="M859.081 370.44C857.911 370.44 856.958 370.072 856.221 369.335C855.484 368.598 855.116 367.667 855.116 366.54C855.116 365.023 855.679 363.723 856.806 362.64C857.976 361.513 859.298 360.95 860.771 360.95C861.941 360.95 862.873 361.318 863.566 362.055C864.303 362.792 864.671 363.723 864.671 364.85C864.671 366.367 864.108 367.688 862.981 368.815C861.854 369.898 860.554 370.44 859.081 370.44ZM861.876 375.185L855.571 411H848.161L854.466 375.185H861.876Z" fill="#979797"/>
<path d="M872.015 392.93C872.665 389.333 873.965 386.148 875.915 383.375C877.908 380.602 880.335 378.457 883.195 376.94C886.055 375.38 889.045 374.6 892.165 374.6C894.981 374.6 897.343 375.163 899.25 376.29C901.156 377.373 902.586 378.738 903.54 380.385L904.45 375.185H911.925L905.62 411H898.145L899.12 405.67C897.56 407.36 895.588 408.768 893.205 409.895C890.865 411.022 888.308 411.585 885.535 411.585C882.848 411.585 880.443 410.978 878.32 409.765C876.24 408.552 874.593 406.84 873.38 404.63C872.21 402.377 871.625 399.798 871.625 396.895C871.625 395.595 871.755 394.273 872.015 392.93ZM901.33 393.06C901.503 392.237 901.59 391.348 901.59 390.395C901.59 387.492 900.723 385.217 898.99 383.57C897.3 381.88 895.176 381.035 892.62 381.035C890.713 381.035 888.85 381.512 887.03 382.465C885.21 383.375 883.628 384.74 882.285 386.56C880.941 388.337 880.053 390.46 879.62 392.93C879.446 393.753 879.36 394.642 879.36 395.595C879.36 398.542 880.205 400.882 881.895 402.615C883.628 404.305 885.773 405.15 888.33 405.15C890.236 405.15 892.1 404.673 893.92 403.72C895.74 402.767 897.321 401.38 898.665 399.56C900.008 397.697 900.896 395.53 901.33 393.06Z" fill="#979797"/>
<path d="M937.017 411.585C933.984 411.585 931.319 410.957 929.022 409.7C926.726 408.443 924.927 406.667 923.627 404.37C922.371 402.073 921.742 399.452 921.742 396.505C921.742 392.475 922.674 388.792 924.537 385.455C926.444 382.118 929.044 379.475 932.337 377.525C935.674 375.575 939.379 374.6 943.452 374.6C946.486 374.6 949.172 375.25 951.512 376.55C953.852 377.807 955.672 379.583 956.972 381.88C958.316 384.133 958.987 386.755 958.987 389.745C958.987 393.775 958.012 397.458 956.062 400.795C954.112 404.132 951.469 406.775 948.132 408.725C944.796 410.632 941.091 411.585 937.017 411.585ZM937.927 405.345C940.397 405.345 942.651 404.652 944.687 403.265C946.767 401.835 948.392 399.972 949.562 397.675C950.732 395.335 951.317 392.843 951.317 390.2C951.317 387.21 950.472 384.913 948.782 383.31C947.092 381.663 944.969 380.84 942.412 380.84C939.899 380.84 937.646 381.555 935.652 382.985C933.702 384.372 932.164 386.257 931.037 388.64C929.954 390.98 929.412 393.493 929.412 396.18C929.412 399.083 930.192 401.337 931.752 402.94C933.356 404.543 935.414 405.345 937.927 405.345Z" fill="#979797"/>
<path d="M971.728 411.455C970.558 411.455 969.604 411.087 968.868 410.35C968.131 409.613 967.763 408.682 967.763 407.555C967.763 406.038 968.326 404.738 969.453 403.655C970.623 402.528 971.944 401.965 973.418 401.965C974.588 401.965 975.519 402.333 976.213 403.07C976.949 403.807 977.318 404.738 977.318 405.865C977.318 407.382 976.754 408.703 975.628 409.83C974.501 410.913 973.201 411.455 971.728 411.455Z" fill="#979797"/>
<path d="M991.196 393.06C991.846 389.377 993.146 386.148 995.096 383.375C997.09 380.558 999.538 378.392 1002.44 376.875C1005.39 375.358 1008.57 374.6 1012 374.6C1016.33 374.6 1019.73 375.64 1022.2 377.72C1024.67 379.757 1026.08 382.682 1026.43 386.495H1018.43C1018.08 384.718 1017.28 383.332 1016.03 382.335C1014.77 381.338 1013.06 380.84 1010.89 380.84C1007.86 380.84 1005.26 381.923 1003.09 384.09C1000.92 386.213 999.495 389.203 998.801 393.06C998.585 394.447 998.476 395.573 998.476 396.44C998.476 399.3 999.191 401.51 1000.62 403.07C1002.05 404.587 1004.04 405.345 1006.6 405.345C1010.89 405.345 1014.05 403.46 1016.09 399.69H1024.09C1022.4 403.33 1019.93 406.233 1016.68 408.4C1013.47 410.523 1009.74 411.585 1005.5 411.585C1000.99 411.585 997.415 410.307 994.771 407.75C992.128 405.15 990.806 401.64 990.806 397.22C990.806 395.877 990.936 394.49 991.196 393.06Z" fill="#979797"/>
<path d="M1051.12 411.585C1048.09 411.585 1045.42 410.957 1043.13 409.7C1040.83 408.443 1039.03 406.667 1037.73 404.37C1036.47 402.073 1035.85 399.452 1035.85 396.505C1035.85 392.475 1036.78 388.792 1038.64 385.455C1040.55 382.118 1043.15 379.475 1046.44 377.525C1049.78 375.575 1053.48 374.6 1057.56 374.6C1060.59 374.6 1063.28 375.25 1065.62 376.55C1067.96 377.807 1069.78 379.583 1071.08 381.88C1072.42 384.133 1073.09 386.755 1073.09 389.745C1073.09 393.775 1072.12 397.458 1070.17 400.795C1068.22 404.132 1065.57 406.775 1062.24 408.725C1058.9 410.632 1055.19 411.585 1051.12 411.585ZM1052.03 405.345C1054.5 405.345 1056.75 404.652 1058.79 403.265C1060.87 401.835 1062.5 399.972 1063.67 397.675C1064.84 395.335 1065.42 392.843 1065.42 390.2C1065.42 387.21 1064.58 384.913 1062.89 383.31C1061.2 381.663 1059.07 380.84 1056.52 380.84C1054 380.84 1051.75 381.555 1049.76 382.985C1047.81 384.372 1046.27 386.257 1045.14 388.64C1044.06 390.98 1043.52 393.493 1043.52 396.18C1043.52 399.083 1044.3 401.337 1045.86 402.94C1047.46 404.543 1049.52 405.345 1052.03 405.345Z" fill="#979797"/>
<path d="M1132.7 374.6C1136.47 374.6 1139.48 375.618 1141.73 377.655C1143.98 379.692 1145.11 382.573 1145.11 386.3C1145.11 387.297 1145 388.488 1144.79 389.875L1141.02 411H1133.67L1137.25 390.98C1137.42 389.767 1137.51 388.9 1137.51 388.38C1137.51 385.997 1136.83 384.177 1135.49 382.92C1134.19 381.663 1132.37 381.035 1130.03 381.035C1127.21 381.035 1124.83 381.902 1122.88 383.635C1120.97 385.325 1119.76 387.773 1119.24 390.98L1115.67 411H1108.32L1111.9 390.98C1112.07 389.767 1112.16 388.9 1112.16 388.38C1112.16 385.997 1111.48 384.177 1110.14 382.92C1108.84 381.663 1107.02 381.035 1104.68 381.035C1101.86 381.035 1099.48 381.902 1097.53 383.635C1095.62 385.325 1094.41 387.773 1093.89 390.98V390.785L1090.32 411H1082.91L1089.21 375.185H1096.62L1095.91 379.345C1097.34 377.872 1099.05 376.723 1101.04 375.9C1103.08 375.033 1105.18 374.6 1107.35 374.6C1110.21 374.6 1112.65 375.207 1114.69 376.42C1116.77 377.633 1118.22 379.388 1119.05 381.685C1120.48 379.518 1122.45 377.807 1124.96 376.55C1127.47 375.25 1130.05 374.6 1132.7 374.6Z" fill="#979797"/>
<defs>
<linearGradient id="paint0_linear_274_236" x1="333.412" y1="92.8943" x2="178.29" y2="466.156" gradientUnits="userSpaceOnUse">
<stop stop-color="#49DCCA"/>
<stop offset="0.504808" stop-color="#3B76EF"/>
<stop offset="0.600962" stop-color="#3B76EF"/>
<stop offset="1" stop-color="#A66DD4"/>
</linearGradient>
</defs>
</svg>
